<svg width="336" height="24" viewBox="0 0 336 24" fill="none" xmlns="http://www.w3.org/2000/svg">
<path d="M43.6101 9.88049V19.0005H40.8501V4.80049H43.0501L50.3901 14.1605V4.82049H53.1501V19.0005H50.8501L43.6101 9.88049ZM55.844 19.0005V8.52049H58.524V19.0005H55.844ZM55.844 7.06049V4.40049H58.524V7.06049H55.844ZM70.6817 19.0005H68.0017V13.1205C68.0017 12.2805 67.855 11.6672 67.5617 11.2805C67.2683 10.8938 66.8617 10.7005 66.3417 10.7005C65.9817 10.7005 65.615 10.7938 65.2417 10.9805C64.8817 11.1672 64.555 11.4272 64.2617 11.7605C63.9683 12.0805 63.755 12.4538 63.6217 12.8805V19.0005H60.9417V8.52049H63.3617V10.4605C63.6283 10.0072 63.9683 9.62715 64.3817 9.32049C64.795 9.00049 65.2683 8.76049 65.8017 8.60049C66.3483 8.42715 66.9217 8.34049 67.5217 8.34049C68.175 8.34049 68.7083 8.46049 69.1217 8.70049C69.5483 8.92715 69.8683 9.24049 70.0817 9.64049C70.3083 10.0272 70.4617 10.4672 70.5417 10.9605C70.635 11.4538 70.6817 11.9538 70.6817 12.4605V19.0005ZM79.2334 18.4605C79.0067 18.5538 78.7334 18.6605 78.4134 18.7805C78.0934 18.9005 77.7467 18.9938 77.3734 19.0605C77.0134 19.1405 76.6467 19.1805 76.2734 19.1805C75.7801 19.1805 75.3267 19.0938 74.9134 18.9205C74.5001 18.7472 74.1667 18.4738 73.9134 18.1005C73.6734 17.7138 73.5534 17.2138 73.5534 16.6005V10.5805H72.1734V8.52049H73.5534V5.12049H76.2334V8.52049H78.4334V10.5805H76.2334V15.7005C76.2467 16.0605 76.3467 16.3205 76.5334 16.4805C76.7201 16.6405 76.9534 16.7205 77.2334 16.7205C77.5134 16.7205 77.7867 16.6738 78.0534 16.5805C78.3201 16.4872 78.5334 16.4072 78.6934 16.3405L79.2334 18.4605ZM86.8692 10.8405C86.0558 10.8405 85.3292 11.0005 84.6892 11.3205C84.0492 11.6272 83.5892 12.0738 83.3092 12.6605V19.0005H80.6292V8.52049H83.0892V10.7605C83.4625 10.0405 83.9358 9.47382 84.5092 9.06049C85.0825 8.64715 85.6892 8.42049 86.3292 8.38049C86.4758 8.38049 86.5892 8.38049 86.6692 8.38049C86.7492 8.38049 86.8158 8.38715 86.8692 8.40049V10.8405ZM88.3636 19.0005V8.52049H91.0436V19.0005H88.3636ZM88.3636 7.06049V4.40049H91.0436V7.06049H88.3636ZM96.2812 19.0005L92.4212 8.52049H95.2012L97.8412 16.5605L100.501 8.52049H103.041L99.2012 19.0005H96.2812ZM103.464 15.9005C103.464 15.2205 103.651 14.6272 104.024 14.1205C104.411 13.6005 104.944 13.2005 105.624 12.9205C106.304 12.6405 107.084 12.5005 107.964 12.5005C108.404 12.5005 108.851 12.5338 109.304 12.6005C109.757 12.6672 110.151 12.7738 110.484 12.9205V12.3605C110.484 11.6938 110.284 11.1805 109.884 10.8205C109.497 10.4605 108.917 10.2805 108.144 10.2805C107.571 10.2805 107.024 10.3805 106.504 10.5805C105.984 10.7805 105.437 11.0738 104.864 11.4605L104.004 9.70049C104.697 9.24715 105.404 8.90715 106.124 8.68049C106.857 8.45382 107.624 8.34049 108.424 8.34049C109.917 8.34049 111.077 8.71382 111.904 9.46049C112.744 10.2072 113.164 11.2738 113.164 12.6605V16.0005C113.164 16.2805 113.211 16.4805 113.304 16.6005C113.411 16.7205 113.577 16.7938 113.804 16.8205V19.0005C113.564 19.0405 113.344 19.0738 113.144 19.1005C112.957 19.1272 112.797 19.1405 112.664 19.1405C112.131 19.1405 111.724 19.0205 111.444 18.7805C111.177 18.5405 111.011 18.2472 110.944 17.9005L110.884 17.3605C110.431 17.9472 109.864 18.4005 109.184 18.7205C108.504 19.0405 107.811 19.2005 107.104 19.2005C106.411 19.2005 105.784 19.0605 105.224 18.7805C104.677 18.4872 104.244 18.0938 103.924 17.6005C103.617 17.0938 103.464 16.5272 103.464 15.9005ZM109.984 16.4405C110.131 16.2805 110.251 16.1205 110.344 15.9605C110.437 15.8005 110.484 15.6538 110.484 15.5205V14.4605C110.164 14.3272 109.817 14.2272 109.444 14.1605C109.071 14.0805 108.717 14.0405 108.384 14.0405C107.691 14.0405 107.117 14.1938 106.664 14.5005C106.224 14.7938 106.004 15.1872 106.004 15.6805C106.004 15.9472 106.077 16.2005 106.224 16.4405C106.371 16.6805 106.584 16.8738 106.864 17.0205C107.144 17.1672 107.477 17.2405 107.864 17.2405C108.264 17.2405 108.657 17.1672 109.044 17.0205C109.431 16.8605 109.744 16.6672 109.984 16.4405ZM132.313 19.0005V9.68049L128.673 16.6205H127.133L123.493 9.68049V19.0005H120.733V4.80049H123.693L127.893 12.8805L132.133 4.80049H135.073V19.0005H132.313ZM136.94 15.9005C136.94 15.2205 137.127 14.6272 137.5 14.1205C137.887 13.6005 138.42 13.2005 139.1 12.9205C139.78 12.6405 140.56 12.5005 141.44 12.5005C141.88 12.5005 142.327 12.5338 142.78 12.6005C143.234 12.6672 143.627 12.7738 143.96 12.9205V12.3605C143.96 11.6938 143.76 11.1805 143.36 10.8205C142.974 10.4605 142.394 10.2805 141.62 10.2805C141.047 10.2805 140.5 10.3805 139.98 10.5805C139.46 10.7805 138.914 11.0738 138.34 11.4605L137.48 9.70049C138.174 9.24715 138.88 8.90715 139.6 8.68049C140.334 8.45382 141.1 8.34049 141.9 8.34049C143.394 8.34049 144.554 8.71382 145.38 9.46049C146.22 10.2072 146.64 11.2738 146.64 12.6605V16.0005C146.64 16.2805 146.687 16.4805 146.78 16.6005C146.887 16.7205 147.054 16.7938 147.28 16.8205V19.0005C147.04 19.0405 146.82 19.0738 146.62 19.1005C146.434 19.1272 146.274 19.1405 146.14 19.1405C145.607 19.1405 145.2 19.0205 144.92 18.7805C144.654 18.5405 144.487 18.2472 144.42 17.9005L144.36 17.3605C143.907 17.9472 143.34 18.4005 142.66 18.7205C141.98 19.0405 141.287 19.2005 140.58 19.2005C139.887 19.2005 139.26 19.0605 138.7 18.7805C138.154 18.4872 137.72 18.0938 137.4 17.6005C137.094 17.0938 136.94 16.5272 136.94 15.9005ZM143.46 16.4405C143.607 16.2805 143.727 16.1205 143.82 15.9605C143.914 15.8005 143.96 15.6538 143.96 15.5205V14.4605C143.64 14.3272 143.294 14.2272 142.92 14.1605C142.547 14.0805 142.194 14.0405 141.86 14.0405C141.167 14.0405 140.594 14.1938 140.14 14.5005C139.7 14.7938 139.48 15.1872 139.48 15.6805C139.48 15.9472 139.554 16.2005 139.7 16.4405C139.847 16.6805 140.06 16.8738 140.34 17.0205C140.62 17.1672 140.954 17.2405 141.34 17.2405C141.74 17.2405 142.134 17.1672 142.52 17.0205C142.907 16.8605 143.22 16.6672 143.46 16.4405ZM158.885 19.0005H156.205V13.1205C156.205 12.2805 156.058 11.6672 155.765 11.2805C155.471 10.8938 155.065 10.7005 154.545 10.7005C154.185 10.7005 153.818 10.7938 153.445 10.9805C153.085 11.1672 152.758 11.4272 152.465 11.7605C152.171 12.0805 151.958 12.4538 151.825 12.8805V19.0005H149.145V8.52049H151.565V10.4605C151.831 10.0072 152.171 9.62715 152.585 9.32049C152.998 9.00049 153.471 8.76049 154.005 8.60049C154.551 8.42715 155.125 8.34049 155.725 8.34049C156.378 8.34049 156.911 8.46049 157.325 8.70049C157.751 8.92715 158.071 9.24049 158.285 9.64049C158.511 10.0272 158.665 10.4672 158.745 10.9605C158.838 11.4538 158.885 11.9538 158.885 12.4605V19.0005ZM160.495 15.9005C160.495 15.2205 160.682 14.6272 161.055 14.1205C161.442 13.6005 161.975 13.2005 162.655 12.9205C163.335 12.6405 164.115 12.5005 164.995 12.5005C165.435 12.5005 165.882 12.5338 166.335 12.6005C166.788 12.6672 167.182 12.7738 167.515 12.9205V12.3605C167.515 11.6938 167.315 11.1805 166.915 10.8205C166.528 10.4605 165.948 10.2805 165.175 10.2805C164.602 10.2805 164.055 10.3805 163.535 10.5805C163.015 10.7805 162.468 11.0738 161.895 11.4605L161.035 9.70049C161.728 9.24715 162.435 8.90715 163.155 8.68049C163.888 8.45382 164.655 8.34049 165.455 8.34049C166.948 8.34049 168.108 8.71382 168.935 9.46049C169.775 10.2072 170.195 11.2738 170.195 12.6605V16.0005C170.195 16.2805 170.242 16.4805 170.335 16.6005C170.442 16.7205 170.608 16.7938 170.835 16.8205V19.0005C170.595 19.0405 170.375 19.0738 170.175 19.1005C169.988 19.1272 169.828 19.1405 169.695 19.1405C169.162 19.1405 168.755 19.0205 168.475 18.7805C168.208 18.5405 168.042 18.2472 167.975 17.9005L167.915 17.3605C167.462 17.9472 166.895 18.4005 166.215 18.7205C165.535 19.0405 164.842 19.2005 164.135 19.2005C163.442 19.2005 162.815 19.0605 162.255 18.7805C161.708 18.4872 161.275 18.0938 160.955 17.6005C160.648 17.0938 160.495 16.5272 160.495 15.9005ZM167.015 16.4405C167.162 16.2805 167.282 16.1205 167.375 15.9605C167.468 15.8005 167.515 15.6538 167.515 15.5205V14.4605C167.195 14.3272 166.848 14.2272 166.475 14.1605C166.102 14.0805 165.748 14.0405 165.415 14.0405C164.722 14.0405 164.148 14.1938 163.695 14.5005C163.255 14.7938 163.035 15.1872 163.035 15.6805C163.035 15.9472 163.108 16.2005 163.255 16.4405C163.402 16.6805 163.615 16.8738 163.895 17.0205C164.175 17.1672 164.508 17.2405 164.895 17.2405C165.295 17.2405 165.688 17.1672 166.075 17.0205C166.462 16.8605 166.775 16.6672 167.015 16.4405ZM176.799 19.0605C176.106 19.0605 175.466 18.9272 174.879 18.6605C174.306 18.3805 173.806 17.9938 173.379 17.5005C172.966 17.0072 172.646 16.4405 172.419 15.8005C172.193 15.1605 172.079 14.4805 172.079 13.7605C172.079 13.0005 172.199 12.2938 172.439 11.6405C172.679 10.9872 173.013 10.4138 173.439 9.92049C173.879 9.41382 174.393 9.02715 174.979 8.76049C175.579 8.48049 176.239 8.34049 176.959 8.34049C177.773 8.34049 178.486 8.52715 179.099 8.90049C179.713 9.26049 180.219 9.74715 180.619 10.3605V8.52049H182.959V18.5005C182.959 19.5405 182.706 20.4272 182.199 21.1605C181.706 21.9072 181.019 22.4738 180.139 22.8605C179.259 23.2605 178.259 23.4605 177.139 23.4605C176.006 23.4605 175.046 23.2672 174.259 22.8805C173.473 22.5072 172.799 21.9738 172.239 21.2805L173.699 19.8605C174.099 20.3538 174.599 20.7405 175.199 21.0205C175.813 21.3005 176.459 21.4405 177.139 21.4405C177.713 21.4405 178.233 21.3338 178.699 21.1205C179.179 20.9205 179.559 20.6005 179.839 20.1605C180.133 19.7338 180.279 19.1805 180.279 18.5005V17.1805C179.933 17.7805 179.439 18.2472 178.799 18.5805C178.173 18.9005 177.506 19.0605 176.799 19.0605ZM177.699 16.9205C177.993 16.9205 178.273 16.8738 178.539 16.7805C178.806 16.6872 179.053 16.5605 179.279 16.4005C179.506 16.2405 179.706 16.0538 179.879 15.8405C180.053 15.6138 180.186 15.3872 180.279 15.1605V12.6605C180.119 12.2472 179.893 11.8872 179.599 11.5805C179.319 11.2738 178.999 11.0405 178.639 10.8805C178.293 10.7072 177.926 10.6205 177.539 10.6205C177.126 10.6205 176.753 10.7072 176.419 10.8805C176.086 11.0538 175.799 11.3005 175.559 11.6205C175.319 11.9272 175.133 12.2738 174.999 12.6605C174.879 13.0338 174.819 13.4272 174.819 13.8405C174.819 14.2672 174.893 14.6672 175.039 15.0405C175.186 15.4138 175.386 15.7405 175.639 16.0205C175.906 16.3005 176.213 16.5205 176.559 16.6805C176.919 16.8405 177.299 16.9205 177.699 16.9205ZM190.235 19.2005C189.395 19.2005 188.635 19.0605 187.955 18.7805C187.275 18.4872 186.695 18.0938 186.215 17.6005C185.735 17.0938 185.362 16.5205 185.095 15.8805C184.842 15.2272 184.715 14.5405 184.715 13.8205C184.715 12.8205 184.935 11.9072 185.375 11.0805C185.829 10.2538 186.469 9.59382 187.295 9.10049C188.135 8.59382 189.122 8.34049 190.255 8.34049C191.402 8.34049 192.382 8.59382 193.195 9.10049C194.009 9.59382 194.629 10.2538 195.055 11.0805C195.495 11.8938 195.715 12.7738 195.715 13.7205C195.715 13.8805 195.709 14.0472 195.695 14.2205C195.682 14.3805 195.669 14.5138 195.655 14.6205H187.555C187.609 15.1538 187.762 15.6205 188.015 16.0205C188.282 16.4205 188.615 16.7272 189.015 16.9405C189.429 17.1405 189.869 17.2405 190.335 17.2405C190.869 17.2405 191.369 17.1138 191.835 16.8605C192.315 16.5938 192.642 16.2472 192.815 15.8205L195.115 16.4605C194.862 16.9938 194.495 17.4672 194.015 17.8805C193.549 18.2938 192.995 18.6205 192.355 18.8605C191.715 19.0872 191.009 19.2005 190.235 19.2005ZM187.495 12.9205H192.975C192.922 12.3872 192.769 11.9272 192.515 11.5405C192.275 11.1405 191.955 10.8338 191.555 10.6205C191.155 10.3938 190.709 10.2805 190.215 10.2805C189.735 10.2805 189.295 10.3938 188.895 10.6205C188.509 10.8338 188.189 11.1405 187.935 11.5405C187.695 11.9272 187.549 12.3872 187.495 12.9205ZM213.628 19.0005H210.948V13.1205C210.948 12.2938 210.801 11.6872 210.508 11.3005C210.228 10.9005 209.835 10.7005 209.328 10.7005C208.808 10.7005 208.308 10.9072 207.828 11.3205C207.361 11.7205 207.028 12.2472 206.828 12.9005V19.0005H204.148V13.1205C204.148 12.2805 204.001 11.6672 203.708 11.2805C203.428 10.8938 203.035 10.7005 202.528 10.7005C202.008 10.7005 201.508 10.9005 201.028 11.3005C200.561 11.7005 200.228 12.2272 200.028 12.8805V19.0005H197.348V8.52049H199.768V10.4605C200.168 9.78049 200.701 9.26049 201.368 8.90049C202.035 8.52715 202.801 8.34049 203.668 8.34049C204.535 8.34049 205.208 8.55382 205.688 8.98049C206.181 9.40715 206.495 9.93382 206.628 10.5605C207.055 9.84049 207.595 9.29382 208.248 8.92049C208.915 8.53382 209.661 8.34049 210.488 8.34049C211.141 8.34049 211.668 8.46049 212.068 8.70049C212.481 8.92715 212.801 9.24049 213.028 9.64049C213.255 10.0272 213.408 10.4672 213.488 10.9605C213.581 11.4538 213.628 11.9538 213.628 12.4605V19.0005ZM220.821 19.2005C219.981 19.2005 219.221 19.0605 218.541 18.7805C217.861 18.4872 217.281 18.0938 216.801 17.6005C216.321 17.0938 215.948 16.5205 215.681 15.8805C215.428 15.2272 215.301 14.5405 215.301 13.8205C215.301 12.8205 215.521 11.9072 215.961 11.0805C216.415 10.2538 217.055 9.59382 217.881 9.10049C218.721 8.59382 219.708 8.34049 220.841 8.34049C221.988 8.34049 222.968 8.59382 223.781 9.10049C224.595 9.59382 225.215 10.2538 225.641 11.0805C226.081 11.8938 226.301 12.7738 226.301 13.7205C226.301 13.8805 226.295 14.0472 226.281 14.2205C226.268 14.3805 226.255 14.5138 226.241 14.6205H218.141C218.195 15.1538 218.348 15.6205 218.601 16.0205C218.868 16.4205 219.201 16.7272 219.601 16.9405C220.015 17.1405 220.455 17.2405 220.921 17.2405C221.455 17.2405 221.955 17.1138 222.421 16.8605C222.901 16.5938 223.228 16.2472 223.401 15.8205L225.701 16.4605C225.448 16.9938 225.081 17.4672 224.601 17.8805C224.135 18.2938 223.581 18.6205 222.941 18.8605C222.301 19.0872 221.595 19.2005 220.821 19.2005ZM218.081 12.9205H223.561C223.508 12.3872 223.355 11.9272 223.101 11.5405C222.861 11.1405 222.541 10.8338 222.141 10.6205C221.741 10.3938 221.295 10.2805 220.801 10.2805C220.321 10.2805 219.881 10.3938 219.481 10.6205C219.095 10.8338 218.775 11.1405 218.521 11.5405C218.281 11.9272 218.135 12.3872 218.081 12.9205ZM237.674 19.0005H234.994V13.1205C234.994 12.2805 234.847 11.6672 234.554 11.2805C234.261 10.8938 233.854 10.7005 233.334 10.7005C232.974 10.7005 232.607 10.7938 232.234 10.9805C231.874 11.1672 231.547 11.4272 231.254 11.7605C230.961 12.0805 230.747 12.4538 230.614 12.8805V19.0005H227.934V8.52049H230.354V10.4605C230.621 10.0072 230.961 9.62715 231.374 9.32049C231.787 9.00049 232.261 8.76049 232.794 8.60049C233.341 8.42715 233.914 8.34049 234.514 8.34049C235.167 8.34049 235.701 8.46049 236.114 8.70049C236.541 8.92715 236.861 9.24049 237.074 9.64049C237.301 10.0272 237.454 10.4672 237.534 10.9605C237.627 11.4538 237.674 11.9538 237.674 12.4605V19.0005ZM246.226 18.4605C245.999 18.5538 245.726 18.6605 245.406 18.7805C245.086 18.9005 244.739 18.9938 244.366 19.0605C244.006 19.1405 243.639 19.1805 243.266 19.1805C242.772 19.1805 242.319 19.0938 241.906 18.9205C241.492 18.7472 241.159 18.4738 240.906 18.1005C240.666 17.7138 240.546 17.2138 240.546 16.6005V10.5805H239.166V8.52049H240.546V5.12049H243.226V8.52049H245.426V10.5805H243.226V15.7005C243.239 16.0605 243.339 16.3205 243.526 16.4805C243.712 16.6405 243.946 16.7205 244.226 16.7205C244.506 16.7205 244.779 16.6738 245.046 16.5805C245.312 16.4872 245.526 16.4072 245.686 16.3405L246.226 18.4605ZM261.146 8.52049C261.053 8.42715 260.879 8.30049 260.626 8.14049C260.386 7.98049 260.086 7.82715 259.726 7.68049C259.379 7.53382 258.999 7.40715 258.586 7.30049C258.173 7.18049 257.753 7.12049 257.326 7.12049C256.579 7.12049 256.013 7.26049 255.626 7.54049C255.253 7.82049 255.066 8.21382 255.066 8.72049C255.066 9.10715 255.186 9.41382 255.426 9.64049C255.666 9.86715 256.026 10.0605 256.506 10.2205C256.986 10.3805 257.586 10.5538 258.306 10.7405C259.239 10.9672 260.046 11.2472 260.726 11.5805C261.419 11.9005 261.946 12.3272 262.306 12.8605C262.679 13.3805 262.866 14.0738 262.866 14.9405C262.866 15.7005 262.726 16.3538 262.446 16.9005C262.166 17.4338 261.779 17.8672 261.286 18.2005C260.793 18.5338 260.233 18.7805 259.606 18.9405C258.979 19.0872 258.313 19.1605 257.606 19.1605C256.899 19.1605 256.193 19.0872 255.486 18.9405C254.779 18.7938 254.099 18.5872 253.446 18.3205C252.793 18.0405 252.193 17.7072 251.646 17.3205L252.866 14.9405C252.986 15.0605 253.199 15.2205 253.506 15.4205C253.813 15.6072 254.186 15.8005 254.626 16.0005C255.066 16.1872 255.546 16.3472 256.066 16.4805C256.586 16.6138 257.113 16.6805 257.646 16.6805C258.393 16.6805 258.959 16.5538 259.346 16.3005C259.733 16.0472 259.926 15.6872 259.926 15.2205C259.926 14.7938 259.773 14.4605 259.466 14.2205C259.159 13.9805 258.733 13.7738 258.186 13.6005C257.639 13.4138 256.993 13.2138 256.246 13.0005C255.353 12.7472 254.606 12.4672 254.006 12.1605C253.406 11.8405 252.959 11.4405 252.666 10.9605C252.373 10.4805 252.226 9.88049 252.226 9.16049C252.226 8.18715 252.453 7.37382 252.906 6.72049C253.373 6.05382 253.999 5.55382 254.786 5.22049C255.573 4.87382 256.446 4.70049 257.406 4.70049C258.073 4.70049 258.699 4.77382 259.286 4.92049C259.886 5.06715 260.446 5.26049 260.966 5.50049C261.486 5.74049 261.953 6.00049 262.366 6.28049L261.146 8.52049ZM264.58 21.0405C264.82 21.0938 265.04 21.1405 265.24 21.1805C265.453 21.2205 265.633 21.2405 265.78 21.2405C266.033 21.2405 266.24 21.1738 266.4 21.0405C266.573 20.9205 266.74 20.6938 266.9 20.3605C267.06 20.0405 267.226 19.5872 267.4 19.0005L263.26 8.52049H266.04L268.86 16.2605L271.34 8.52049H273.9L269.5 21.0805C269.34 21.5472 269.093 21.9672 268.76 22.3405C268.44 22.7272 268.033 23.0272 267.54 23.2405C267.06 23.4672 266.52 23.5805 265.92 23.5805C265.706 23.5805 265.493 23.5605 265.28 23.5205C265.066 23.4938 264.833 23.4405 264.58 23.3605V21.0405ZM278.962 19.2005C278.069 19.2005 277.215 19.0538 276.402 18.7605C275.589 18.4672 274.889 18.0338 274.302 17.4605L275.262 15.7205C275.889 16.2272 276.502 16.6005 277.102 16.8405C277.715 17.0805 278.302 17.2005 278.862 17.2005C279.382 17.2005 279.795 17.1072 280.102 16.9205C280.422 16.7338 280.582 16.4538 280.582 16.0805C280.582 15.8272 280.495 15.6338 280.322 15.5005C280.149 15.3538 279.895 15.2272 279.562 15.1205C279.242 15.0138 278.849 14.8938 278.382 14.7605C277.609 14.5072 276.962 14.2605 276.442 14.0205C275.922 13.7805 275.529 13.4805 275.262 13.1205C275.009 12.7472 274.882 12.2738 274.882 11.7005C274.882 11.0072 275.055 10.4138 275.402 9.92049C275.762 9.41382 276.255 9.02049 276.882 8.74049C277.522 8.46049 278.269 8.32049 279.122 8.32049C279.869 8.32049 280.575 8.44049 281.242 8.68049C281.909 8.90715 282.515 9.28049 283.062 9.80049L281.982 11.5005C281.449 11.0872 280.942 10.7872 280.462 10.6005C279.982 10.4005 279.495 10.3005 279.002 10.3005C278.722 10.3005 278.455 10.3338 278.202 10.4005C277.962 10.4672 277.762 10.5805 277.602 10.7405C277.455 10.8872 277.382 11.1005 277.382 11.3805C277.382 11.6338 277.449 11.8338 277.582 11.9805C277.729 12.1138 277.942 12.2338 278.222 12.3405C278.515 12.4472 278.869 12.5672 279.282 12.7005C280.122 12.9405 280.829 13.1872 281.402 13.4405C281.989 13.6938 282.429 14.0072 282.722 14.3805C283.015 14.7405 283.162 15.2405 283.162 15.8805C283.162 16.9205 282.782 17.7338 282.022 18.3205C281.262 18.9072 280.242 19.2005 278.962 19.2005ZM291.206 18.4605C290.979 18.5538 290.706 18.6605 290.386 18.7805C290.066 18.9005 289.719 18.9938 289.346 19.0605C288.986 19.1405 288.619 19.1805 288.246 19.1805C287.753 19.1805 287.299 19.0938 286.886 18.9205C286.473 18.7472 286.139 18.4738 285.886 18.1005C285.646 17.7138 285.526 17.2138 285.526 16.6005V10.5805H284.146V8.52049H285.526V5.12049H288.206V8.52049H290.406V10.5805H288.206V15.7005C288.219 16.0605 288.319 16.3205 288.506 16.4805C288.693 16.6405 288.926 16.7205 289.206 16.7205C289.486 16.7205 289.759 16.6738 290.026 16.5805C290.293 16.4872 290.506 16.4072 290.666 16.3405L291.206 18.4605ZM297.345 19.2005C296.505 19.2005 295.745 19.0605 295.065 18.7805C294.385 18.4872 293.805 18.0938 293.325 17.6005C292.845 17.0938 292.471 16.5205 292.205 15.8805C291.951 15.2272 291.825 14.5405 291.825 13.8205C291.825 12.8205 292.045 11.9072 292.485 11.0805C292.938 10.2538 293.578 9.59382 294.405 9.10049C295.245 8.59382 296.231 8.34049 297.365 8.34049C298.511 8.34049 299.491 8.59382 300.305 9.10049C301.118 9.59382 301.738 10.2538 302.165 11.0805C302.605 11.8938 302.825 12.7738 302.825 13.7205C302.825 13.8805 302.818 14.0472 302.805 14.2205C302.791 14.3805 302.778 14.5138 302.765 14.6205H294.665C294.718 15.1538 294.871 15.6205 295.125 16.0205C295.391 16.4205 295.725 16.7272 296.125 16.9405C296.538 17.1405 296.978 17.2405 297.445 17.2405C297.978 17.2405 298.478 17.1138 298.945 16.8605C299.425 16.5938 299.751 16.2472 299.925 15.8205L302.225 16.4605C301.971 16.9938 301.605 17.4672 301.125 17.8805C300.658 18.2938 300.105 18.6205 299.465 18.8605C298.825 19.0872 298.118 19.2005 297.345 19.2005ZM294.605 12.9205H300.085C300.031 12.3872 299.878 11.9272 299.625 11.5405C299.385 11.1405 299.065 10.8338 298.665 10.6205C298.265 10.3938 297.818 10.2805 297.325 10.2805C296.845 10.2805 296.405 10.3938 296.005 10.6205C295.618 10.8338 295.298 11.1405 295.045 11.5405C294.805 11.9272 294.658 12.3872 294.605 12.9205ZM320.737 19.0005H318.057V13.1205C318.057 12.2938 317.911 11.6872 317.617 11.3005C317.337 10.9005 316.944 10.7005 316.437 10.7005C315.917 10.7005 315.417 10.9072 314.937 11.3205C314.471 11.7205 314.137 12.2472 313.937 12.9005V19.0005H311.257V13.1205C311.257 12.2805 311.111 11.6672 310.817 11.2805C310.537 10.8938 310.144 10.7005 309.637 10.7005C309.117 10.7005 308.617 10.9005 308.137 11.3005C307.671 11.7005 307.337 12.2272 307.137 12.8805V19.0005H304.457V8.52049H306.877V10.4605C307.277 9.78049 307.811 9.26049 308.477 8.90049C309.144 8.52715 309.911 8.34049 310.777 8.34049C311.644 8.34049 312.317 8.55382 312.797 8.98049C313.291 9.40715 313.604 9.93382 313.737 10.5605C314.164 9.84049 314.704 9.29382 315.357 8.92049C316.024 8.53382 316.771 8.34049 317.597 8.34049C318.251 8.34049 318.777 8.46049 319.177 8.70049C319.591 8.92715 319.911 9.24049 320.137 9.64049C320.364 10.0272 320.517 10.4672 320.597 10.9605C320.691 11.4538 320.737 11.9538 320.737 12.4605V19.0005Z" fill="#414343"/>
<path d="M12.8682 16.8529C13.1013 16.5993 13.3113 16.3253 13.4955 16.0342C13.6867 16.317 13.8963 16.5869 14.1228 16.8423C13.8962 17.1013 13.6866 17.3748 13.4955 17.661C13.3077 17.3757 13.098 17.1055 12.8682 16.8529Z" fill="#DEAE83"/>
<path d="M26.3608 7.01791V16.3746C26.3615 16.7664 26.3295 17.1577 26.2651 17.5442C25.9886 15.9086 25.1417 14.4238 23.8746 13.3533C22.6075 12.2827 21.0021 11.6957 19.3433 11.6963H7.72184C6.05028 11.678 4.42708 12.257 3.14448 13.3291C1.86187 14.4012 1.0041 15.8959 0.725588 17.5442C0.66119 17.1577 0.629181 16.7664 0.629894 16.3746V7.01791C0.629842 6.09006 0.813792 5.17141 1.1711 4.31512C1.52841 3.45883 2.05198 2.6819 2.71152 2.02928C3.37106 1.37666 4.15348 0.861312 5.01349 0.513057C5.8735 0.164802 6.79404 -0.00944609 7.72184 0.000394738H19.3433C21.2044 0.000394738 22.9894 0.739738 24.3054 2.05578C25.6214 3.37182 26.3608 5.15675 26.3608 7.01791Z" fill="#3BBCA0"/>
<path d="M12.1875 23.3919H7.65804C6.73649 23.3933 5.82368 23.2132 4.97174 22.8618C4.1198 22.5104 3.34541 21.9947 2.69279 21.3441C2.04017 20.6934 1.52209 19.9206 1.16813 19.0697C0.814181 18.2188 0.631286 17.3066 0.629891 16.385V11.5366C0.628491 10.6146 0.809049 9.70146 1.16122 8.84942C1.51338 7.99739 2.03024 7.22323 2.68215 6.57131C3.33407 5.9194 4.10823 5.40254 4.96027 5.05038C5.8123 4.69821 6.72546 4.51765 7.64741 4.51905H10.4013C10.6333 4.53102 10.8643 4.55945 11.0924 4.60411C9.79328 4.80974 8.57813 5.37632 7.58551 6.23923C6.59288 7.10214 5.86274 8.22664 5.47836 9.48448C5.38265 9.80532 5.30806 10.1321 5.25507 10.4627C5.20387 10.7862 5.17898 11.1133 5.18065 11.4409V16.385C5.18346 18.2425 5.92258 20.0231 7.23602 21.3365C8.54946 22.65 10.3301 23.3891 12.1875 23.3919Z" fill="#F1C025"/>
<path d="M26.3606 7.01811V16.3748C26.3578 18.2351 25.6175 20.0184 24.3021 21.3338C22.9867 22.6493 21.2034 23.3895 19.3431 23.3923H12.1767C10.3155 23.3923 8.5306 22.653 7.21456 21.3369C5.89852 20.0209 5.15918 18.236 5.15918 16.3748V11.2605C5.95483 11.557 6.79817 11.7047 7.64721 11.6965H19.3431C21.0034 11.6966 22.61 11.1081 23.8774 10.0354C25.1447 8.96272 25.9907 7.47544 26.2649 5.83789C26.33 6.22789 26.362 6.62271 26.3606 7.01811Z" fill="#DEAE83"/>
<path d="M26.3614 7.01801V11.8665C26.3585 13.7268 25.6183 15.5101 24.3029 16.8255C22.9874 18.1409 21.2041 18.8812 19.3438 18.884H16.8664C16.5485 18.8849 16.2314 18.8528 15.9201 18.7883C17.2168 18.5796 18.4291 18.0118 19.4195 17.1492C20.4099 16.2866 21.1388 15.1637 21.5235 13.9079C21.6219 13.5957 21.693 13.2755 21.7362 12.951C21.7957 12.5998 21.8242 12.244 21.8212 11.8877V7.01801C21.8226 6.09607 21.6421 5.18291 21.2899 4.33087C20.9377 3.47883 20.4209 2.70467 19.769 2.05276C19.1171 1.40084 18.3429 0.883989 17.4909 0.531821C16.6388 0.179654 15.7257 -0.000903712 14.8037 0.000496361H19.3438C21.205 0.000496361 22.9899 0.73984 24.306 2.05588C25.622 3.37192 26.3614 5.15685 26.3614 7.01801Z" fill="#81C563"/>
<path d="M21.8206 13.6314V7.8047C21.8463 7.34828 21.7786 6.89142 21.6216 6.46207C21.4647 6.03273 21.2217 5.63993 20.9077 5.30772C20.5937 4.97551 20.2152 4.71087 19.7953 4.53001C19.3755 4.34915 18.9232 4.25586 18.466 4.25586C18.0089 4.25586 17.5565 4.34915 17.1367 4.53001C16.7169 4.71087 16.3383 4.97551 16.0243 5.30772C15.7103 5.63993 15.4674 6.03273 15.3104 6.46207C15.1534 6.89142 15.0857 7.34828 15.1114 7.8047V9.26136C15.0624 8.14636 14.6391 7.08041 13.9099 6.23547C13.1807 5.39054 12.1881 4.8159 11.0923 4.60428C10.8642 4.55962 10.6333 4.53119 10.4012 4.51922H9.84829C8.57987 4.58995 7.38681 5.14415 6.51459 6.0678C5.64237 6.99144 5.15734 8.21426 5.15931 9.48465C5.14872 9.62622 5.14872 9.76838 5.15931 9.90995V15.5878C5.20758 16.4448 5.58204 17.2509 6.20585 17.8405C6.82966 18.4302 7.6555 18.7587 8.5139 18.7587C9.37229 18.7587 10.1981 18.4302 10.8219 17.8405C11.4458 17.2509 11.8202 16.4448 11.8685 15.5878V15.524V14.1311C11.9157 15.2467 12.3383 16.3136 13.0678 17.1589C13.7973 18.0042 14.7909 18.5783 15.8876 18.7882C16.1989 18.8527 16.516 18.8847 16.8339 18.8839C17.4869 18.8839 18.1334 18.7551 18.7366 18.5049C19.3397 18.2547 19.8875 17.888 20.3488 17.4258C20.81 16.9636 21.1755 16.4149 21.4244 15.8113C21.6733 15.2076 21.8007 14.5608 21.7993 13.9078C21.812 13.8162 21.8191 13.7239 21.8206 13.6314Z" fill="white"/>
</svg>
